# xmcd CD database file
#
# Track frame offsets:
#	180
#	16028
#	44658
#	63719
#	81667
#	106165
#	132859
#	149062
#	180455
#	199047
#	232989
#	253817
#
# Disc length: 3722 seconds
#
# Revision: 3
# Processed by: cddbd v1.5PL3 Copyright (c) Steve Scherf et al.
# Submitted via: CDex 1.51
#
DISCID=ad0e880c
DTITLE=Dave Mckenna - Dave Mckenna
DYEAR=1999
DGENRE=Jazz
TTITLE0=Tormented
TTITLE1=Moon Medley
TTITLE2=Me And My Shadow
TTITLE3=Little Sir Echo
TTITLE4=More Than You Know
TTITLE5=Blue Medley
TTITLE6=Sheilk Of Araby
TTITLE7=Cabin/Penthouse
TTITLE8=My Blue Heaven
TTITLE9=Autumn Medley
TTITLE10=It Had To Be You
TTITLE11=Embraceable You
EXTD=YEAR: 1999
EXTT0=
EXTT1=
EXTT2=
EXTT3=
EXTT4=
EXTT5=
EXTT6=
EXTT7=
EXTT8=
EXTT9=
EXTT10=
EXTT11=
PLAYORDER=
